# xmcd
#
# Track frame offsets:
#	150
#	24816
#	49319
#	72373
#	99204
#	123672
#	149909
#	175394
#	197229
#	223125
#	248055
#	273665
#
# Disc length: 3967 seconds
#
# Revision: 131
# Processed by: cddbd v1.5.2PL0 Copyright (c) Steve Scherf et al.
# Submitted via: EZCDAudioConverter 8.0.2.1
#
DISCID=bf0f7d0c
DTITLE=Various Artist - st. Đỗ Bảo. Vol 02.  Thời Gian Để Yêu
DYEAR=2008
DGENRE=Contemporary Pop
TTITLE0=Hồ Quỳnh Hương - Bức thư tình thứ tư
TTITLE1=Nguyên Thảo - Thời Gian Để Yêu
TTITLE2=Nguyễn Ngọc Anh - Chìm trong muôn thuở
TTITLE3=Tùng Dương - Mây
TTITLE4=Trần Thu Hà - Bài ca tháng sáu
TTITLE5=Thanh Lam - Đôi mắt xanh
TTITLE6=Tấn Minh - Bức thư tình thứ ba
TTITLE7=Trần Thu Hà - Câu trả lời
TTITLE8=Huy Phạm - Kỷ niệm
TTITLE9=Nguyên Thảo - Những khung trời khác
TTITLE10=Lê Hiếu - Thủy chung
TTITLE11=Tùng Dương - Ngược sáng
EXTD=
EXTT0=
EXTT1=
EXTT2=
EXTT3=
EXTT4=
EXTT5=
EXTT6=
EXTT7=
EXTT8=
EXTT9=
EXTT10=
EXTT11=
PLAYORDER=
